<?xml version="1.0" encoding="UTF-8"?>
<!DOCTYPE svg PUBLIC "-//W3C//DTD SVG 1.1//EN" "http://www.w3.org/Graphics/SVG/1.1/DTD/svg11.dtd">
<!-- Creator: CorelDRAW -->
<svg xmlns="http://www.w3.org/2000/svg" xml:space="preserve" width="50mm" height="32.0534mm" version="1.1" style="shape-rendering:geometricPrecision; text-rendering:geometricPrecision; image-rendering:optimizeQuality; fill-rule:evenodd; clip-rule:evenodd"
viewBox="0 0 4988.43 3197.92"
 xmlns:xlink="http://www.w3.org/1999/xlink"
 xmlns:xodm="http://www.corel.com/coreldraw/odm/2003">
 <defs>
  <style type="text/css">
   <![CDATA[
    .fil0 {fill:#2B2A29}
   ]]>
  </style>
 </defs>
 <g id="Layer_x0020_1">
  <metadata id="CorelCorpID_0Corel-Layer"/>
  <path class="fil0" d="M3642.48 799.16c-14.97,-10.96 -109.83,-176.18 -117.78,-210.3l-12.67 96.8c-0.53,91.31 29.2,176.87 55.25,256.01 29.71,90.31 93.77,186.25 146.7,265.49 -34,-22.77 -133.62,-162.65 -164.04,-201.89 -26.06,54.31 2.62,183.18 21.01,243.96 11.35,37.53 38.01,96.8 57.56,131.72 15.49,27.71 112.84,163.35 114.91,171.1 -19.82,-13.27 -24.96,-26.62 -40.93,-43.2l-82.11 -86.14c-14.67,-14.67 -27.89,-33.15 -49.42,-38.9 -22.87,15.3 -20.06,51.56 -16.27,87.77 6.98,66.56 35.09,142.91 73.87,195.33 8.46,11.44 18.74,18.97 22.32,32.35 -23.21,-6.2 -119.42,-129.84 -148.09,-51.34 -24.34,66.68 49.69,186.83 124.54,239.68 -30.36,-8.11 -127.17,-60.89 -139.4,-7.63 -11.49,50.02 7.73,109.73 70.41,164.19 -82.52,-6.86 -237.25,-61.8 -325.47,-90.93 -106.3,-35.11 -264.53,-124.94 -352.38,-175.99l-346.8 -208.41c-158.39,-110.93 -337.25,-228 -480.9,-356.1 -120.37,-101.9 -234.92,-197.71 -349.06,-307.1 -190.32,-182.42 -433.3,-385.06 -685.86,-775.24 92.4,323.48 410.17,739.31 557.43,906.15 72.18,81.79 319.22,287.88 335.63,312.81 30.68,46.61 16.59,111 -39.02,108.03 -97.85,-5.22 -444.4,-177.37 -542.25,-213.86 -106.65,-41.88 -310.7,-112.64 -424.84,-146.23 -175.83,-51.77 -681.2,-165.16 -904.82,-113.06 15.45,10.74 162.05,34.13 183.41,39.51 85.69,21.58 180.39,46 262.97,73.52 181.33,60.43 318.99,109.48 496.98,180.2 28.49,11.32 52.17,21.91 81.37,32.2l396.86 166.75c146.79,66.06 506.81,269.26 646.46,341.59 84.86,43.96 210.17,153.24 336.12,253.75 153.55,122.53 246.93,327.8 344.56,415.96 -24.57,-3.74 -199.84,-8.71 -199.84,31.75 40.59,0.9 159.77,60.83 210.95,79.26 5.51,1.98 10.78,3.26 15.67,5.36 8.47,3.64 6.6,2.25 13.12,7.91 -27.53,-2.28 -106.37,-28.79 -137.26,-39.39l-140.33 -40.53c-49.68,-12.56 -97.36,-16.68 -159.94,-16.92 -33.24,-0.13 -129.71,10 -147.12,33.75 74.52,17.35 187.44,61.92 265.68,91.84 10.68,4.08 8.93,2.84 16.13,9.11 -21.34,-0.48 -185.54,-58.04 -230.78,-72.05 -26.1,-8.09 -56.17,-13.82 -84.63,-20.53 -124.51,-29.34 -247.79,-28.46 -370.18,0.05 39.29,14.49 79.31,23.18 119.31,36.32 77.99,25.96 154.07,52.5 231.4,79.85 20.27,8.28 100.16,37.61 111.96,47.86 -48.16,-4 -252.4,-88 -321.44,-107.57 -153.41,-43.53 -338.78,-94.69 -496.99,-71.52l-123.73 19.27c19.11,13.28 148.12,32.56 169.32,36.78 163.29,32.47 462.1,147.37 515.1,171.37 -46,-11.1 -161.21,-49.7 -205.49,-62.53 -203.12,-58.85 -437.28,-128.79 -647.18,-128.79 -48.23,0 -122.54,-4.44 -167.62,0.61 -168.25,18.84 -359.41,41.55 -516.2,106.3 -10.99,4.54 -31.21,7.56 -31.21,19.27 46.54,0 109.42,-0.65 140.66,2.79 49.17,5.42 102.08,2.72 146.5,8.67 313.08,29.41 601.76,85.14 904.98,171.79 158.96,45.42 317.42,92.02 476.21,137.88 350,101.09 975.47,288.72 1274.17,72.5 76.23,-55.18 110.86,-114.87 165.84,-179.11 126.98,0.58 255.65,3.85 381.99,-9.12 33.11,-3.4 72.37,-8.47 108.24,-13.74 160.06,-23.53 283.95,-59.78 412.56,-121.62 77.86,-37.43 152.97,-78.73 218.87,-134.44 12.1,-10.23 23.28,-18.5 33.98,-29.11l60.86 -56.92c88.68,-77.29 -25.24,-9.91 144.8,-94.93 23.5,-11.75 58.27,-35.29 81.32,-40.66l0 -8.42c-11.97,-5.9 -73.51,-33.27 -170.15,-23.17l-17.38 -4.76c-9.03,-33.81 -44.28,-86.39 -65.4,-114.52 -57.62,-76.74 -139.22,-140.36 -238.74,-160.84 -110.4,-22.72 -237.11,-8.87 -341.76,33.49 -52.23,21.15 -86.86,34.09 -150.09,44.22 0,0 -20.1,-2.51 -13.69,-15.01 4.8,-9.34 61.53,-43.56 73.41,-48.9 53.12,-23.82 74.48,-43.02 125.31,-72.07 85.96,-49.13 179.05,-40.86 235.64,-83.51 98.46,-74.21 39.02,-228.27 -3.59,-313.43 -85.07,-170.09 -203.25,-304.31 -291.81,-452.66 -89.25,-149.5 -143.9,-225.3 -231.14,-399.78l-133.38 -291.42c-52.99,-132.34 -95.12,-269.52 -116,-413.97 -4.02,-27.83 -9.11,-65.89 -15.6,-93.76 -40.81,10.89 -84.26,128.04 -95.04,165.74 -11.32,39.65 -22.63,128.84 -22.93,170.66 -0.29,41.01 11.64,141.18 20.34,177.63 8.84,37.01 17.31,67.43 29.21,101.18l76.83 183.95zm927 1595.88c27.65,0 50.06,19.29 50.06,43.08 0,23.79 -22.42,43.09 -50.06,43.09 -27.65,0 -50.06,-19.3 -50.06,-43.09 0,-23.79 22.42,-43.08 50.06,-43.08z"/>
 </g>
</svg>
