<?xml version="1.0" encoding="UTF-8"?>
<!DOCTYPE svg PUBLIC "-//W3C//DTD SVG 1.1//EN" "http://www.w3.org/Graphics/SVG/1.1/DTD/svg11.dtd">
<!-- Creator: CorelDRAW -->
<svg xmlns="http://www.w3.org/2000/svg" xml:space="preserve" width="65mm" height="41.6694mm" version="1.1" style="shape-rendering:geometricPrecision; text-rendering:geometricPrecision; image-rendering:optimizeQuality; fill-rule:evenodd; clip-rule:evenodd"
viewBox="0 0 1877.37 1203.52"
 xmlns:xlink="http://www.w3.org/1999/xlink"
 xmlns:xodm="http://www.corel.com/coreldraw/odm/2003">
 <defs>
  <style type="text/css">
   <![CDATA[
    .fil0 {fill:#2B2A29}
   ]]>
  </style>
 </defs>
 <g id="Layer_x0020_1">
  <metadata id="CorelCorpID_0Corel-Layer"/>
  <path class="fil0" d="M1370.82 300.76c-5.63,-4.12 -41.33,-66.3 -44.32,-79.15l-4.77 36.43c-0.2,34.36 10.99,66.56 20.79,96.35 5.62,17.09 16.54,37.71 25.05,52.51 4.75,8.26 9.19,15.96 14.31,23.68l15.84 23.73c-7.63,-5.11 -17.69,-19.03 -23.72,-26.94l-38.02 -49.05c-9.81,20.44 0.99,68.94 7.91,91.82 4.27,14.12 14.31,36.43 21.66,49.57 5.83,10.43 42.47,61.48 43.25,64.39 -7.46,-4.99 -9.4,-10.01 -15.4,-16.26l-30.9 -32.42c-5.52,-5.52 -10.5,-12.48 -18.6,-14.64 -8.6,5.76 -7.55,19.41 -6.12,33.03 2.63,25.05 13.2,53.79 27.8,73.51 3.19,4.31 7.05,7.14 8.4,12.18 -8.73,-2.33 -44.94,-48.86 -55.73,-19.32 -9.16,25.09 18.7,70.31 46.87,90.2 -11.43,-3.05 -47.86,-22.91 -52.46,-2.87 -4.32,18.83 2.91,41.29 26.5,61.79 -31.05,-2.58 -89.29,-23.26 -122.49,-34.22 -40.01,-13.21 -99.56,-47.02 -132.62,-66.23l-130.51 -78.43c-59.61,-41.75 -126.92,-85.81 -180.99,-134.02 -45.3,-38.35 -88.41,-74.41 -131.36,-115.57 -71.63,-68.65 -163.07,-144.92 -258.12,-291.76 34.77,121.74 154.37,278.24 209.78,341.02 27.17,30.78 120.14,108.34 126.31,117.73 11.55,17.54 6.25,41.78 -14.68,40.66 -36.83,-1.96 -167.24,-66.75 -204.08,-80.49 -40.14,-15.76 -116.93,-42.39 -159.89,-55.04 -66.17,-19.48 -256.37,-62.15 -340.53,-42.55 5.82,4.04 60.99,12.85 69.03,14.87 32.25,8.12 67.89,17.31 98.97,27.67 68.24,22.74 120.05,41.2 187.03,67.82 10.72,4.26 19.63,8.25 30.62,12.12l149.35 62.76c55.24,24.86 190.74,101.33 243.3,128.56 31.94,16.54 79.09,57.67 126.49,95.49 57.79,46.11 92.93,123.37 129.67,156.55 -23.73,-3.61 -38.18,-3.91 -58.83,3 -6.67,2.23 -9.91,5.25 -16.38,5.78l0 3.17c15.28,0.34 60.13,22.9 79.39,29.83 2.07,0.75 4.06,1.23 5.9,2.02 3.19,1.37 2.48,0.85 4.94,2.98 -10.36,-0.86 -40.03,-10.84 -51.66,-14.83l-52.81 -15.25c-18.7,-4.73 -36.64,-6.28 -60.19,-6.37 -12.51,-0.05 -48.81,3.76 -55.36,12.7 28.04,6.53 70.54,23.3 99.99,34.56 4.01,1.54 3.36,1.07 6.07,3.43 -8.03,-0.18 -69.83,-21.84 -86.86,-27.12 -9.82,-3.04 -21.14,-5.2 -31.85,-7.72 -46.86,-11.04 -93.25,-10.72 -139.31,0.02l10.41 3.84c4.58,1.11 7.06,1.62 11.43,2.82 7.31,2 15.13,4.41 23.06,7.01l65.32 21.74c8.26,2.97 13.47,5.37 21.77,8.31l39.33 16.07c2.05,1.15 1.59,0.89 2.8,1.94 -18.12,-1.51 -94.99,-33.12 -120.97,-40.49 -14.56,-4.13 -26.95,-8.52 -41.72,-12.1 -40.81,-9.89 -102.94,-21.02 -145.32,-14.82l-46.57 7.25c7.19,5 55.74,12.25 63.72,13.84 61.45,12.22 173.91,55.46 193.85,64.5 -17.31,-4.18 -60.66,-18.71 -77.34,-23.54 -31.31,-9.07 -50.42,-14.83 -82.11,-23.13 -51.38,-13.47 -105.89,-25.34 -161.45,-25.34 -18.15,0 -46.12,-1.67 -63.09,0.23 -63.32,7.09 -135.26,15.64 -194.27,40.01 -5.24,2.16 -5.51,3.57 -11.75,4.09l0 3.17c17.52,0 41.18,-0.25 52.94,1.05 18.5,2.04 38.42,1.03 55.14,3.27l52.09 4.89c97.97,11.97 193.86,32.72 288.49,59.76 15.86,4.53 29.91,8.72 45.86,12.71l89.39 26.16c14.46,4.48 28.76,8.62 43.97,13.02 131.72,38.04 367.11,108.66 479.53,27.29 28.69,-20.77 41.72,-43.23 62.41,-67.41 47.78,0.22 96.21,1.45 143.76,-3.43 12.46,-1.28 27.24,-3.19 40.74,-5.17 60.23,-8.85 106.86,-22.5 155.26,-45.77 29.3,-14.09 57.57,-29.63 82.37,-50.59 4.55,-3.85 8.76,-6.96 12.79,-10.96l22.9 -21.42c33.38,-29.09 -9.5,-3.73 54.5,-35.73 8.84,-4.42 21.93,-13.28 30.6,-15.3l0 -3.17c-4.5,-2.22 -27.66,-12.52 -64.03,-8.72 -7.17,0.75 -12.18,3.95 -19.2,4.54l12.66 -6.33c-3.4,-12.72 -16.66,-32.51 -24.61,-43.1 -21.68,-28.88 -52.4,-52.83 -89.85,-60.53 -41.55,-8.55 -89.24,-3.34 -128.62,12.61 -19.66,7.96 -32.69,12.83 -56.49,16.64 0,0 -7.57,-0.95 -5.15,-5.65 1.81,-3.52 27.32,-8.76 31.79,-10.76 19.99,-8.97 30.5,-19.5 46.81,-32.33 49.05,-38.58 63.57,-17.8 84.87,-33.85 37.06,-27.93 14.68,-85.91 -1.35,-117.96 -32.02,-64.01 -76.49,-114.53 -109.82,-170.36 -33.59,-56.26 -54.15,-84.79 -86.99,-150.45l-50.2 -109.68c-19.94,-49.81 -35.79,-101.43 -43.65,-155.8 -1.51,-10.47 -3.43,-24.8 -5.87,-35.29 -15.36,4.1 -31.71,48.19 -35.77,62.37 -4.26,14.92 -8.52,48.49 -8.63,64.23 -0.11,15.43 4.38,53.13 7.66,66.85 3.32,13.93 6.51,25.38 10.99,38.08l28.91 69.23zm221.29 693c6.03,-1.65 16.86,-5.85 24.07,-6.01l0 -3.17c-8.9,-0.74 -30.63,-11.94 -37.99,-15.83 4.58,-6.25 33.32,-22.5 43.36,-24.75 16.79,-3.76 38.25,8.34 55.45,11.42 18.06,3.23 40.41,4.74 58.63,1.39 16.28,-3 49.03,-14.88 53.09,-14.97 -26.07,38.93 -90.81,70.54 -133.51,89.69 -47.02,21.09 -128.36,42.52 -187.92,44.01 -22.28,0.56 -85.23,3.12 -102.81,-1.78 -15.67,-4.37 37.11,-6.92 93.54,-24.38 60.43,-18.7 125.66,-52.34 134.08,-55.62zm127.59 -92.41c10.4,0 18.84,7.26 18.84,16.21 0,8.96 -8.44,16.21 -18.84,16.21 -10.41,0 -18.84,-7.26 -18.84,-16.21 0,-8.95 8.43,-16.21 18.84,-16.21z"/>
 </g>
</svg>
